<svg data-v-423bf9ae="" xmlns="http://www.w3.org/2000/svg" viewBox="0 0 799 701" class="iconLeftSlogan"><!----><!----><!----><g data-v-423bf9ae="" id="24d91f0c-65bf-416c-815c-afefad610f51" fill="#342103" transform="matrix(5.633803018697211,0,0,5.633803018697211,489.55636548621226,-0.5633797365700381)"><path d="M2.11 2.01L2.11 4.29L2.11 4.29Q2.63 3.67 3.18 3.39L3.18 3.39L3.18 3.39Q3.73 3.11 4.31 3.11L4.31 3.11L4.31 3.11Q5.67 3.11 6.48 4.09L6.48 4.09L6.48 4.09Q7.28 5.06 7.28 6.64L7.28 6.64L7.28 6.64Q7.28 8.35 6.21 9.57L6.21 9.57L6.21 9.57Q5.68 10.15 5.04 10.44L5.04 10.44L5.04 10.44Q4.40 10.74 3.61 10.74L3.61 10.74L3.61 10.74Q2.91 10.74 2.34 10.63L2.34 10.63L2.34 10.63Q1.78 10.53 1.10 10.53L1.10 10.53L0.91 10.53L0.64 10.60L1.00 10.06L1.00 10.06Q1.00 9.63 1.04 8.96L1.04 8.96L1.04 8.96Q1.07 8.29 1.07 8.05L1.07 8.05L1.07 3.31L1.01 0.95L0.11 0.81L0.11 0.45L1.00 0.32L1.00 0.32Q1.32 0.26 1.88 0.10L1.88 0.10L2.13 0.10L2.11 2.01ZM2.12 6.04L2.12 6.04L2.12 9.63L2.12 9.63Q2.29 9.76 2.82 9.97L2.82 9.97L2.82 9.97Q3.32 10.15 4.00 10.15L4.00 10.15L4.00 10.15Q4.91 10.15 5.53 9.25L5.53 9.25L5.53 9.25Q6.15 8.34 6.15 6.99L6.15 6.99L6.15 6.99Q6.15 5.60 5.55 4.78L5.55 4.78L5.55 4.78Q4.94 3.97 3.84 3.97L3.84 3.97L3.84 3.97Q3.04 3.97 2.58 4.53L2.58 4.53L2.58 4.53Q2.12 5.09 2.12 6.04ZM14.99 6.92L14.99 6.92L14.99 6.92Q14.99 8.58 13.96 9.66L13.96 9.66L13.96 9.66Q12.94 10.74 11.34 10.74L11.34 10.74L11.34 10.74Q9.76 10.74 8.77 9.66L8.77 9.66L8.77 9.66Q8.30 9.14 8.06 8.45L8.06 8.45L8.06 8.45Q7.82 7.76 7.82 6.92L7.82 6.92L7.82 6.92Q7.82 5.27 8.85 4.19L8.85 4.19L8.85 4.19Q9.88 3.11 11.46 3.11L11.46 3.11L11.46 3.11Q13.06 3.11 14.02 4.18L14.02 4.18L14.02 4.18Q14.99 5.25 14.99 6.92ZM13.87 6.92L13.87 6.92L13.87 6.92Q13.87 5.55 13.14 4.62L13.14 4.62L13.14 4.62Q12.40 3.68 11.32 3.68L11.32 3.68L11.32 3.68Q10.21 3.68 9.57 4.59L9.57 4.59L9.57 4.59Q8.94 5.49 8.94 6.92L8.94 6.92L8.94 6.92Q8.94 7.64 9.12 8.21L9.12 8.21L9.12 8.21Q9.31 8.78 9.67 9.26L9.67 9.26L9.67 9.26Q10.39 10.16 11.49 10.16L11.49 10.16L11.49 10.16Q12.58 10.16 13.23 9.26L13.23 9.26L13.23 9.26Q13.87 8.36 13.87 6.92ZM22.71 6.92L22.71 6.92L22.71 6.92Q22.71 8.58 21.69 9.66L21.69 9.66L21.69 9.66Q20.66 10.74 19.06 10.74L19.06 10.74L19.06 10.74Q17.48 10.74 16.49 9.66L16.49 9.66L16.49 9.66Q16.03 9.14 15.78 8.45L15.78 8.45L15.78 8.45Q15.54 7.76 15.54 6.92L15.54 6.92L15.54 6.92Q15.54 5.27 16.57 4.19L16.57 4.19L16.57 4.19Q17.60 3.11 19.18 3.11L19.18 3.11L19.18 3.11Q20.78 3.11 21.74 4.18L21.74 4.18L21.74 4.18Q22.71 5.25 22.71 6.92ZM21.59 6.92L21.59 6.92L21.59 6.92Q21.59 5.55 20.86 4.62L20.86 4.62L20.86 4.62Q20.12 3.68 19.04 3.68L19.04 3.68L19.04 3.68Q17.93 3.68 17.29 4.59L17.29 4.59L17.29 4.59Q16.66 5.49 16.66 6.92L16.66 6.92L16.66 6.92Q16.66 7.64 16.84 8.21L16.84 8.21L16.84 8.21Q17.03 8.78 17.40 9.26L17.40 9.26L17.40 9.26Q18.11 10.16 19.21 10.16L19.21 10.16L19.21 10.16Q20.30 10.16 20.95 9.26L20.95 9.26L20.95 9.26Q21.59 8.36 21.59 6.92ZM23.15 0.95L22.25 0.81L22.25 0.45L23.13 0.32L23.13 0.32Q23.31 0.29 23.48 0.25L23.48 0.25L23.48 0.25Q23.81 0.15 24.01 0.10L24.01 0.10L24.27 0.10L24.23 2.01L24.23 6.29L25.71 5.06L25.71 5.06Q26.28 4.59 26.45 4.44L26.45 4.44L26.45 4.44Q26.75 4.18 27.20 3.75L27.20 3.75L26.62 3.62L26.62 3.29L29.07 3.28L29.07 3.61L28.27 3.78L25.31 6.11L27.05 8.13L27.05 8.13Q27.93 9.10 28.91 10.09L28.91 10.09L29.74 10.23L29.74 10.56L29.74 10.56Q29.61 10.56 29.31 10.57L29.31 10.57L29.31 10.57Q29.01 10.58 28.85 10.58L28.85 10.58L27.95 10.70L27.95 10.70Q27.90 10.66 27.88 10.64L27.88 10.64L27.88 10.64Q27.79 10.54 27.69 10.44L27.69 10.44L26.12 8.59L26.12 8.59Q25.55 7.91 25.14 7.46L25.14 7.46L25.14 7.46Q24.85 7.14 24.47 6.74L24.47 6.74L24.23 6.51L24.23 7.82L24.31 10.07L25.13 10.22L25.13 10.57L23.73 10.53L22.35 10.57L22.35 10.22L23.17 10.07L23.22 7.83L23.22 3.31L23.15 0.95ZM35.83 8.34L35.83 8.34L35.83 8.34Q35.83 9.34 34.94 10.04L34.94 10.04L34.94 10.04Q34.05 10.74 32.78 10.74L32.78 10.74L32.78 10.74Q32.03 10.74 31.29 10.50L31.29 10.50L31.29 10.50Q30.94 10.37 30.63 10.21L30.63 10.21L30.63 10.21Q30.31 10.04 29.99 9.83L29.99 9.83L30.53 9.13L30.99 8.42L31.29 8.58L31.00 9.35L31.00 9.35Q31.25 9.57 31.81 9.84L31.81 9.84L31.81 9.84Q32.35 10.07 33.08 10.07L33.08 10.07L33.08 10.07Q33.79 10.07 34.33 9.69L34.33 9.69L34.33 9.69Q34.86 9.31 34.86 8.71L34.86 8.71L34.86 8.71Q34.86 8.14 34.39 7.82L34.39 7.82L34.39 7.82Q33.87 7.49 32.92 7.23L32.92 7.23L32.92 7.23Q31.78 6.90 31.09 6.51L31.09 6.51L31.09 6.51Q30.41 6.11 30.41 5.17L30.41 5.17L30.41 5.17Q30.41 4.22 31.25 3.67L31.25 3.67L31.25 3.67Q31.66 3.40 32.17 3.25L32.17 3.25L32.17 3.25Q32.68 3.11 33.30 3.11L33.30 3.11L33.30 3.11Q33.90 3.11 34.55 3.23L34.55 3.23L34.55 3.23Q34.90 3.30 35.10 3.35L35.10 3.35L35.10 3.35Q35.29 3.41 35.47 3.48L35.47 3.48L34.93 4.91L34.65 4.81L34.67 4.17L34.67 4.17Q34.35 4.02 33.91 3.90L33.91 3.90L33.91 3.90Q33.62 3.82 33.43 3.79L33.43 3.79L33.43 3.79Q33.23 3.77 33.00 3.77L33.00 3.77L33.00 3.77Q32.23 3.77 31.81 4.06L31.81 4.06L31.81 4.06Q31.38 4.36 31.38 4.83L31.38 4.83L31.38 4.83Q31.38 5.31 31.82 5.65L31.82 5.65L31.82 5.65Q32.29 5.96 33.49 6.27L33.49 6.27L33.49 6.27Q34.68 6.59 35.24 7.08L35.24 7.08L35.24 7.08Q35.83 7.53 35.83 8.34ZM40.73 4.09L40.73 7.82L40.78 10.07L41.68 10.22L41.68 10.57L40.17 10.53L38.64 10.57L38.64 10.22L39.56 10.07L39.59 7.83L39.59 3.67L39.56 2.12L38.40 2.12L38.40 1.78L38.40 1.78Q38.62 1.73 38.87 1.64L38.87 1.64L38.87 1.64Q39.13 1.56 39.39 1.47L39.39 1.47L39.39 1.47Q39.80 1.30 39.86 1.27L39.86 1.27L39.86 1.27Q40.02 1.20 40.30 1.06L40.30 1.06L40.75 1.06L40.73 4.09ZM50.02 5.91L50.02 5.91L50.02 5.91Q50.02 8.10 49.14 9.42L49.14 9.42L49.14 9.42Q48.27 10.75 46.72 10.75L46.72 10.75L46.72 10.75Q45.18 10.75 44.30 9.42L44.30 9.42L44.30 9.42Q43.42 8.09 43.42 5.91L43.42 5.91L43.42 5.91Q43.42 3.74 44.28 2.40L44.28 2.40L44.28 2.40Q45.15 1.06 46.72 1.06L46.72 1.06L46.72 1.06Q48.27 1.06 49.14 2.38L49.14 2.38L49.14 2.38Q49.58 3.05 49.80 3.93L49.80 3.93L49.80 3.93Q50.02 4.80 50.02 5.91ZM48.90 5.91L48.90 5.91L48.90 5.91Q48.90 3.93 48.34 2.78L48.34 2.78L48.34 2.78Q47.79 1.62 46.72 1.62L46.72 1.62L46.72 1.62Q45.65 1.62 45.09 2.78L45.09 2.78L45.09 2.78Q44.54 3.93 44.54 5.91L44.54 5.91L44.54 5.91Q44.54 7.88 45.09 9.03L45.09 9.03L45.09 9.03Q45.63 10.18 46.72 10.18L46.72 10.18L46.72 10.18Q47.78 10.18 48.34 9.03L48.34 9.03L48.34 9.03Q48.90 7.89 48.90 5.91ZM53.86 4.09L53.86 7.82L53.91 10.07L54.81 10.22L54.81 10.57L53.30 10.53L51.77 10.57L51.77 10.22L52.69 10.07L52.72 7.83L52.72 3.67L52.69 2.12L51.53 2.12L51.53 1.78L51.53 1.78Q51.75 1.73 52.00 1.64L52.00 1.64L52.00 1.64Q52.26 1.56 52.52 1.47L52.52 1.47L52.52 1.47Q52.93 1.30 52.99 1.27L52.99 1.27L52.99 1.27Q53.15 1.20 53.43 1.06L53.43 1.06L53.88 1.06L53.86 4.09Z"></path></g><defs data-v-423bf9ae=""><linearGradient data-v-423bf9ae="" gradientTransform="rotate(25)" id="891ad3f9-1c21-458c-abf5-0791b955a06c" x1="0%" y1="0%" x2="100%" y2="0%"><stop data-v-423bf9ae="" offset="0%" style="stop-color: rgb(229, 101, 0); stop-opacity: 1;"></stop><stop data-v-423bf9ae="" offset="100%" style="stop-color: rgb(235, 197, 29); stop-opacity: 1;"></stop></linearGradient></defs><g data-v-423bf9ae="" id="e407a465-3c91-4005-9ce5-4b862562d1e2" transform="matrix(2.7897335476345484,0,0,2.7897335476345484,0.9119515068881014,0.7824388373873035)" stroke="none" fill="url(#891ad3f9-1c21-458c-abf5-0791b955a06c)"><path d="M133.189 239.867c0 8.284-6.187 12.691-13.817 9.844L14.356 203.648C6.725 200.8.538 191.776.538 183.492v-145c0-8.284 6.501-12.915 13.818-9.844L119.372 74.71c7.631 2.848 13.817 11.872 13.817 20.156v145.001z"></path><path d="M119.573 74.252c7.771 2.9 14.116 12.152 14.116 20.614v145c0 6.705-3.948 11.21-9.823 11.21-1.503 0-3.073-.303-4.669-.897L14.155 204.106C6.383 201.207.038 191.955.038 183.492v-145c0-6.705 17.22-23.296 13.55-18.708-4.966 6.209-.652 7.8.943 8.396m-4.669.102c-5.278 0-8.824 4.103-8.824 10.209v145c0 8.08 6.053 16.912 13.493 19.688l105.042 46.073c1.457.543 2.91.824 4.293.824 5.277 0 8.823-4.104 8.823-10.21v-145c0-8.08-6.053-16.912-13.492-19.688L14.155 29.106c-1.457-.543-2.91-.824-4.293-.824z"></path><path d="M126.795 249.873l-5.068-6.189 26.459-21.67 3.933-.653c2.383.891 4.517.809 6.008-.227 1.556-1.08 2.412-3.164 2.412-5.869v-145c0-6.626-5.137-14.14-11.217-16.409l-.146-.058L39.823 8.013c-8.66-.254-17.459 3.097-23.702 9.031C10.884 22.021 8 28.379 8 34.948v4H0v-4c0-8.783 3.768-17.201 10.609-23.703C18.576 3.674 29.911-.511 40.907.05l1.342.305 109.947 46.034c9.17 3.466 16.342 13.935 16.342 23.875v145c0 5.325-2.132 9.859-5.85 12.44-3.078 2.136-7.019 2.771-11.074 1.841l-24.819 20.328z"></path></g><!----><g data-v-423bf9ae="" id="038f491e-c40f-4063-8b06-245755ed5673" fill="#342103" transform="matrix(0.8942154973560897,0,0,0.8942154973560897,489.988306591324,57.80917076594111)"><path d="M4.48 2.45L0.21 12.60L0.70 12.60L1.97 9.52L6.99 9.52L8.26 12.60L8.75 12.60ZM4.48 3.50L6.79 9.07L2.17 9.07ZM28.42 2.80L28.42 12.60L30.52 12.60C32.65 12.60 33.71 11.69 33.71 9.87C33.71 9.19 33.48 8.62 33.01 8.17C32.53 7.72 31.97 7.41 31.30 7.25C32.54 7.02 33.15 6.30 33.15 5.11C33.15 4.40 32.90 3.84 32.39 3.42C31.88 3.01 31.16 2.80 30.24 2.80ZM28.84 7.08L28.84 3.21L30.24 3.21C31.01 3.21 31.62 3.37 32.07 3.71C32.51 4.05 32.73 4.51 32.73 5.11C32.73 5.60 32.60 5.99 32.33 6.31C32.06 6.62 31.75 6.83 31.39 6.93C31.05 7.03 30.66 7.08 30.24 7.08ZM28.84 7.48L30.52 7.48C30.92 7.48 31.32 7.56 31.72 7.72C32.13 7.88 32.48 8.16 32.79 8.54C33.10 8.92 33.25 9.37 33.25 9.87C33.25 11.42 32.34 12.19 30.52 12.19L28.84 12.19ZM42.67 7.70C42.67 6.38 43.08 5.29 43.89 4.41C44.70 3.53 45.73 3.09 46.97 3.09C48.21 3.09 49.24 3.53 50.05 4.41C50.86 5.29 51.27 6.38 51.27 7.70C51.27 9.02 50.86 10.11 50.05 10.99C49.24 11.87 48.21 12.31 46.97 12.31C45.73 12.31 44.70 11.87 43.89 10.99C43.08 10.11 42.67 9.02 42.67 7.70ZM42.25 7.70C42.25 9.16 42.70 10.36 43.59 11.30C44.48 12.24 45.61 12.71 46.97 12.71C48.33 12.71 49.46 12.24 50.35 11.30C51.24 10.36 51.69 9.16 51.69 7.70C51.69 6.24 51.24 5.04 50.35 4.10C49.46 3.16 48.33 2.69 46.97 2.69C45.61 2.69 44.48 3.16 43.59 4.10C42.70 5.04 42.25 6.24 42.25 7.70ZM60.51 7.70C60.51 6.38 60.91 5.29 61.73 4.41C62.54 3.53 63.56 3.09 64.81 3.09C66.05 3.09 67.07 3.53 67.89 4.41C68.70 5.29 69.10 6.38 69.10 7.70C69.10 9.02 68.70 10.11 67.89 10.99C67.07 11.87 66.05 12.31 64.81 12.31C63.56 12.31 62.54 11.87 61.73 10.99C60.91 10.11 60.51 9.02 60.51 7.70ZM60.09 7.70C60.09 9.16 60.53 10.36 61.42 11.30C62.32 12.24 63.44 12.71 64.81 12.71C66.17 12.71 67.30 12.24 68.19 11.30C69.08 10.36 69.52 9.16 69.52 7.70C69.52 6.24 69.08 5.04 68.19 4.10C67.30 3.16 66.17 2.69 64.81 2.69C63.44 2.69 62.32 3.16 61.42 4.10C60.53 5.04 60.09 6.24 60.09 7.70ZM78.41 2.80L78.41 12.60L78.83 12.60L78.83 7.56L83.27 12.60L83.86 12.60L79.27 7.39L83.65 2.80L83.08 2.80L78.83 7.24L78.83 2.80ZM92.75 2.80ZM92.33 2.80L92.33 12.60L92.75 12.60L92.75 8.48L94.30 8.48L97.43 12.60L97.97 12.60L94.78 8.47C95.68 8.41 96.39 8.15 96.93 7.67C97.47 7.20 97.73 6.52 97.73 5.64C97.73 4.71 97.43 4.00 96.82 3.52C96.22 3.04 95.42 2.80 94.43 2.80ZM92.75 3.21L94.43 3.21C95.30 3.21 95.99 3.41 96.52 3.83C97.04 4.24 97.30 4.85 97.30 5.64C97.30 6.44 97.04 7.04 96.52 7.45C95.99 7.87 95.30 8.08 94.43 8.08L92.75 8.08ZM106.79 7.48L111.13 7.48L111.13 7.08L106.79 7.08L106.79 3.21L111.41 3.21L111.41 2.80L106.37 2.80L106.37 12.60L111.41 12.60L111.41 12.19L106.79 12.19ZM124.01 2.45L119.74 12.60L120.23 12.60L121.51 9.52L126.52 9.52L127.79 12.60L128.28 12.60ZM124.01 3.50L126.32 9.07L121.70 9.07ZM136.75 2.80L136.75 12.60L139.13 12.60C140.55 12.60 141.69 12.15 142.54 11.25C143.40 10.35 143.82 9.17 143.82 7.70C143.82 6.23 143.40 5.05 142.54 4.15C141.69 3.25 140.55 2.80 139.13 2.80ZM137.17 3.22L139.13 3.22C140.43 3.22 141.46 3.63 142.23 4.46C142.99 5.28 143.37 6.37 143.37 7.70C143.37 9.09 143.00 10.18 142.24 10.98C141.48 11.78 140.45 12.18 139.13 12.18L137.17 12.18ZM153.20 7.48L157.54 7.48L157.54 7.08L153.20 7.08L153.20 3.21L157.82 3.21L157.82 2.80L152.78 2.80L152.78 12.60L157.82 12.60L157.82 12.19L153.20 12.19ZM167.62 2.80ZM167.20 2.80L167.20 12.60L167.62 12.60L167.62 8.48L169.18 8.48L172.30 12.60L172.84 12.60L169.65 8.47C170.55 8.41 171.26 8.15 171.80 7.67C172.34 7.20 172.61 6.52 172.61 5.64C172.61 4.71 172.30 4.00 171.70 3.52C171.09 3.04 170.29 2.80 169.30 2.80ZM167.62 3.21L169.30 3.21C170.17 3.21 170.87 3.41 171.39 3.83C171.91 4.24 172.17 4.85 172.17 5.64C172.17 6.44 171.91 7.04 171.39 7.45C170.87 7.87 170.17 8.08 169.30 8.08L167.62 8.08ZM182.50 2.80L181.38 7.00L181.66 7.00L183.06 2.80ZM192.05 9.74L191.67 9.90C192.30 11.77 193.35 12.71 194.82 12.71C195.74 12.71 196.43 12.45 196.90 11.93C197.36 11.41 197.60 10.77 197.60 10.01C197.60 9.66 197.54 9.35 197.42 9.06C197.30 8.78 197.17 8.55 197.03 8.37C196.88 8.19 196.68 8.02 196.42 7.86C196.16 7.70 195.95 7.58 195.78 7.50C195.62 7.43 195.40 7.34 195.12 7.22C195.08 7.21 194.96 7.16 194.77 7.08C194.57 7.01 194.45 6.96 194.40 6.94C194.36 6.91 194.25 6.87 194.08 6.80C193.91 6.73 193.80 6.67 193.75 6.64C193.70 6.60 193.61 6.54 193.48 6.45C193.35 6.37 193.26 6.30 193.21 6.24C193.17 6.18 193.10 6.10 193.02 6.00C192.93 5.90 192.88 5.80 192.84 5.70C192.81 5.61 192.78 5.50 192.75 5.38C192.72 5.25 192.71 5.12 192.71 4.98C192.71 4.41 192.91 3.95 193.31 3.62C193.70 3.29 194.19 3.12 194.78 3.12C195.91 3.12 196.70 3.77 197.13 5.07L197.54 4.90C197.33 4.23 197.00 3.69 196.53 3.29C196.07 2.89 195.49 2.69 194.80 2.69C194.11 2.69 193.51 2.90 193.00 3.33C192.49 3.76 192.23 4.33 192.23 5.04C192.23 5.39 192.31 5.71 192.45 5.99C192.60 6.27 192.81 6.51 193.09 6.71C193.38 6.91 193.64 7.07 193.87 7.17C194.09 7.28 194.39 7.41 194.75 7.55C195.03 7.65 195.23 7.72 195.33 7.77C195.43 7.82 195.60 7.90 195.85 8.02C196.09 8.13 196.26 8.24 196.37 8.34C196.48 8.45 196.60 8.58 196.75 8.75C196.89 8.92 196.99 9.11 197.05 9.32C197.11 9.54 197.13 9.78 197.13 10.05C197.13 10.72 196.94 11.27 196.57 11.68C196.19 12.09 195.62 12.29 194.87 12.29C193.63 12.29 192.70 11.44 192.05 9.74ZM217.83 2.80L217.83 12.60L218.25 12.60L218.25 7.62L224.48 7.62L224.48 12.60L224.90 12.60L224.90 2.80L224.48 2.80L224.48 7.18L218.25 7.18L218.25 2.80ZM234.28 7.70C234.28 6.38 234.68 5.29 235.49 4.41C236.31 3.53 237.33 3.09 238.57 3.09C239.82 3.09 240.84 3.53 241.65 4.41C242.47 5.29 242.87 6.38 242.87 7.70C242.87 9.02 242.47 10.11 241.65 10.99C240.84 11.87 239.82 12.31 238.57 12.31C237.33 12.31 236.31 11.87 235.49 10.99C234.68 10.11 234.28 9.02 234.28 7.70ZM233.86 7.70C233.86 9.16 234.30 10.36 235.19 11.30C236.08 12.24 237.21 12.71 238.57 12.71C239.94 12.71 241.06 12.24 241.96 11.30C242.85 10.36 243.29 9.16 243.29 7.70C243.29 6.24 242.85 5.04 241.96 4.10C241.06 3.16 239.94 2.69 238.57 2.69C237.21 2.69 236.08 3.16 235.19 4.10C234.30 5.04 233.86 6.24 233.86 7.70ZM260.50 3.86L261.35 12.60L261.77 12.60L260.72 2.45L256.80 10.70L252.88 2.45L251.83 12.60L252.25 12.60L253.11 3.86L256.80 11.69ZM271.29 7.48L275.63 7.48L275.63 7.08L271.29 7.08L271.29 3.21L275.91 3.21L275.91 2.80L270.87 2.80L270.87 12.60L275.91 12.60L275.91 12.19L271.29 12.19Z"></path></g></svg>