<svg data-v-423bf9ae="" xmlns="http://www.w3.org/2000/svg" viewBox="0 0 308.16902942098807 60" class="font"><!----><!----><!----><g data-v-423bf9ae="" id="845ed2ca-2d50-4f72-a3ab-7e2840115fe4" fill="white" transform="matrix(5.633803018697211,0,0,5.633803018697211,-0.6197209395690209,-0.5633797365700381)"><path d="M2.11 2.01L2.11 4.29L2.11 4.29Q2.63 3.67 3.18 3.39L3.18 3.39L3.18 3.39Q3.73 3.11 4.31 3.11L4.31 3.11L4.31 3.11Q5.67 3.11 6.48 4.09L6.48 4.09L6.48 4.09Q7.28 5.06 7.28 6.64L7.28 6.64L7.28 6.64Q7.28 8.35 6.21 9.57L6.21 9.57L6.21 9.57Q5.68 10.15 5.04 10.44L5.04 10.44L5.04 10.44Q4.40 10.74 3.61 10.74L3.61 10.74L3.61 10.74Q2.91 10.74 2.34 10.63L2.34 10.63L2.34 10.63Q1.78 10.53 1.10 10.53L1.10 10.53L0.91 10.53L0.64 10.60L1.00 10.06L1.00 10.06Q1.00 9.63 1.04 8.96L1.04 8.96L1.04 8.96Q1.07 8.29 1.07 8.05L1.07 8.05L1.07 3.31L1.01 0.95L0.11 0.81L0.11 0.45L1.00 0.32L1.00 0.32Q1.32 0.26 1.88 0.10L1.88 0.10L2.13 0.10L2.11 2.01ZM2.12 6.04L2.12 6.04L2.12 9.63L2.12 9.63Q2.29 9.76 2.82 9.97L2.82 9.97L2.82 9.97Q3.32 10.15 4.00 10.15L4.00 10.15L4.00 10.15Q4.91 10.15 5.53 9.25L5.53 9.25L5.53 9.25Q6.15 8.34 6.15 6.99L6.15 6.99L6.15 6.99Q6.15 5.60 5.55 4.78L5.55 4.78L5.55 4.78Q4.94 3.97 3.84 3.97L3.84 3.97L3.84 3.97Q3.04 3.97 2.58 4.53L2.58 4.53L2.58 4.53Q2.12 5.09 2.12 6.04ZM14.99 6.92L14.99 6.92L14.99 6.92Q14.99 8.58 13.96 9.66L13.96 9.66L13.96 9.66Q12.94 10.74 11.34 10.74L11.34 10.74L11.34 10.74Q9.76 10.74 8.77 9.66L8.77 9.66L8.77 9.66Q8.30 9.14 8.06 8.45L8.06 8.45L8.06 8.45Q7.82 7.76 7.82 6.92L7.82 6.92L7.82 6.92Q7.82 5.27 8.85 4.19L8.85 4.19L8.85 4.19Q9.88 3.11 11.46 3.11L11.46 3.11L11.46 3.11Q13.06 3.11 14.02 4.18L14.02 4.18L14.02 4.18Q14.99 5.25 14.99 6.92ZM13.87 6.92L13.87 6.92L13.87 6.92Q13.87 5.55 13.14 4.62L13.14 4.62L13.14 4.62Q12.40 3.68 11.32 3.68L11.32 3.68L11.32 3.68Q10.21 3.68 9.57 4.59L9.57 4.59L9.57 4.59Q8.94 5.49 8.94 6.92L8.94 6.92L8.94 6.92Q8.94 7.64 9.12 8.21L9.12 8.21L9.12 8.21Q9.31 8.78 9.67 9.26L9.67 9.26L9.67 9.26Q10.39 10.16 11.49 10.16L11.49 10.16L11.49 10.16Q12.58 10.16 13.23 9.26L13.23 9.26L13.23 9.26Q13.87 8.36 13.87 6.92ZM22.71 6.92L22.71 6.92L22.71 6.92Q22.71 8.58 21.69 9.66L21.69 9.66L21.69 9.66Q20.66 10.74 19.06 10.74L19.06 10.74L19.06 10.74Q17.48 10.74 16.49 9.66L16.49 9.66L16.49 9.66Q16.03 9.14 15.78 8.45L15.78 8.45L15.78 8.45Q15.54 7.76 15.54 6.92L15.54 6.92L15.54 6.92Q15.54 5.27 16.57 4.19L16.57 4.19L16.57 4.19Q17.60 3.11 19.18 3.11L19.18 3.11L19.18 3.11Q20.78 3.11 21.74 4.18L21.74 4.18L21.74 4.18Q22.71 5.25 22.71 6.92ZM21.59 6.92L21.59 6.92L21.59 6.92Q21.59 5.55 20.86 4.62L20.86 4.62L20.86 4.62Q20.12 3.68 19.04 3.68L19.04 3.68L19.04 3.68Q17.93 3.68 17.29 4.59L17.29 4.59L17.29 4.59Q16.66 5.49 16.66 6.92L16.66 6.92L16.66 6.92Q16.66 7.64 16.84 8.21L16.84 8.21L16.84 8.21Q17.03 8.78 17.40 9.26L17.40 9.26L17.40 9.26Q18.11 10.16 19.21 10.16L19.21 10.16L19.21 10.16Q20.30 10.16 20.95 9.26L20.95 9.26L20.95 9.26Q21.59 8.36 21.59 6.92ZM23.15 0.95L22.25 0.81L22.25 0.45L23.13 0.32L23.13 0.32Q23.31 0.29 23.48 0.25L23.48 0.25L23.48 0.25Q23.81 0.15 24.01 0.10L24.01 0.10L24.27 0.10L24.23 2.01L24.23 6.29L25.71 5.06L25.71 5.06Q26.28 4.59 26.45 4.44L26.45 4.44L26.45 4.44Q26.75 4.18 27.20 3.75L27.20 3.75L26.62 3.62L26.62 3.29L29.07 3.28L29.07 3.61L28.27 3.78L25.31 6.11L27.05 8.13L27.05 8.13Q27.93 9.10 28.91 10.09L28.91 10.09L29.74 10.23L29.74 10.56L29.74 10.56Q29.61 10.56 29.31 10.57L29.31 10.57L29.31 10.57Q29.01 10.58 28.85 10.58L28.85 10.58L27.95 10.70L27.95 10.70Q27.90 10.66 27.88 10.64L27.88 10.64L27.88 10.64Q27.79 10.54 27.69 10.44L27.69 10.44L26.12 8.59L26.12 8.59Q25.55 7.91 25.14 7.46L25.14 7.46L25.14 7.46Q24.85 7.14 24.47 6.74L24.47 6.74L24.23 6.51L24.23 7.82L24.31 10.07L25.13 10.22L25.13 10.57L23.73 10.53L22.35 10.57L22.35 10.22L23.17 10.07L23.22 7.83L23.22 3.31L23.15 0.95ZM35.83 8.34L35.83 8.34L35.83 8.34Q35.83 9.34 34.94 10.04L34.94 10.04L34.94 10.04Q34.05 10.74 32.78 10.74L32.78 10.74L32.78 10.74Q32.03 10.74 31.29 10.50L31.29 10.50L31.29 10.50Q30.94 10.37 30.63 10.21L30.63 10.21L30.63 10.21Q30.31 10.04 29.99 9.83L29.99 9.83L30.53 9.13L30.99 8.42L31.29 8.58L31.00 9.35L31.00 9.35Q31.25 9.57 31.81 9.84L31.81 9.84L31.81 9.84Q32.35 10.07 33.08 10.07L33.08 10.07L33.08 10.07Q33.79 10.07 34.33 9.69L34.33 9.69L34.33 9.69Q34.86 9.31 34.86 8.71L34.86 8.71L34.86 8.71Q34.86 8.14 34.39 7.82L34.39 7.82L34.39 7.82Q33.87 7.49 32.92 7.23L32.92 7.23L32.92 7.23Q31.78 6.90 31.09 6.51L31.09 6.51L31.09 6.51Q30.41 6.11 30.41 5.17L30.41 5.17L30.41 5.17Q30.41 4.22 31.25 3.67L31.25 3.67L31.25 3.67Q31.66 3.40 32.17 3.25L32.17 3.25L32.17 3.25Q32.68 3.11 33.30 3.11L33.30 3.11L33.30 3.11Q33.90 3.11 34.55 3.23L34.55 3.23L34.55 3.23Q34.90 3.30 35.10 3.35L35.10 3.35L35.10 3.35Q35.29 3.41 35.47 3.48L35.47 3.48L34.93 4.91L34.65 4.81L34.67 4.17L34.67 4.17Q34.35 4.02 33.91 3.90L33.91 3.90L33.91 3.90Q33.62 3.82 33.43 3.79L33.43 3.79L33.43 3.79Q33.23 3.77 33.00 3.77L33.00 3.77L33.00 3.77Q32.23 3.77 31.81 4.06L31.81 4.06L31.81 4.06Q31.38 4.36 31.38 4.83L31.38 4.83L31.38 4.83Q31.38 5.31 31.82 5.65L31.82 5.65L31.82 5.65Q32.29 5.96 33.49 6.27L33.49 6.27L33.49 6.27Q34.68 6.59 35.24 7.08L35.24 7.08L35.24 7.08Q35.83 7.53 35.83 8.34ZM40.73 4.09L40.73 7.82L40.78 10.07L41.68 10.22L41.68 10.57L40.17 10.53L38.64 10.57L38.64 10.22L39.56 10.07L39.59 7.83L39.59 3.67L39.56 2.12L38.40 2.12L38.40 1.78L38.40 1.78Q38.62 1.73 38.87 1.64L38.87 1.64L38.87 1.64Q39.13 1.56 39.39 1.47L39.39 1.47L39.39 1.47Q39.80 1.30 39.86 1.27L39.86 1.27L39.86 1.27Q40.02 1.20 40.30 1.06L40.30 1.06L40.75 1.06L40.73 4.09ZM50.02 5.91L50.02 5.91L50.02 5.91Q50.02 8.10 49.14 9.42L49.14 9.42L49.14 9.42Q48.27 10.75 46.72 10.75L46.72 10.75L46.72 10.75Q45.18 10.75 44.30 9.42L44.30 9.42L44.30 9.42Q43.42 8.09 43.42 5.91L43.42 5.91L43.42 5.91Q43.42 3.74 44.28 2.40L44.28 2.40L44.28 2.40Q45.15 1.06 46.72 1.06L46.72 1.06L46.72 1.06Q48.27 1.06 49.14 2.38L49.14 2.38L49.14 2.38Q49.58 3.05 49.80 3.93L49.80 3.93L49.80 3.93Q50.02 4.80 50.02 5.91ZM48.90 5.91L48.90 5.91L48.90 5.91Q48.90 3.93 48.34 2.78L48.34 2.78L48.34 2.78Q47.79 1.62 46.72 1.62L46.72 1.62L46.72 1.62Q45.65 1.62 45.09 2.78L45.09 2.78L45.09 2.78Q44.54 3.93 44.54 5.91L44.54 5.91L44.54 5.91Q44.54 7.88 45.09 9.03L45.09 9.03L45.09 9.03Q45.63 10.18 46.72 10.18L46.72 10.18L46.72 10.18Q47.78 10.18 48.34 9.03L48.34 9.03L48.34 9.03Q48.90 7.89 48.90 5.91ZM53.86 4.09L53.86 7.82L53.91 10.07L54.81 10.22L54.81 10.57L53.30 10.53L51.77 10.57L51.77 10.22L52.69 10.07L52.72 7.83L52.72 3.67L52.69 2.12L51.53 2.12L51.53 1.78L51.53 1.78Q51.75 1.73 52.00 1.64L52.00 1.64L52.00 1.64Q52.26 1.56 52.52 1.47L52.52 1.47L52.52 1.47Q52.93 1.30 52.99 1.27L52.99 1.27L52.99 1.27Q53.15 1.20 53.43 1.06L53.43 1.06L53.88 1.06L53.86 4.09Z"></path></g><!----><!----></svg>